<?xml version="1.0" encoding="UTF-8"?>
<svg id="Ebene_2" data-name="Ebene 2" xmlns="http://www.w3.org/2000/svg" viewBox="0 0 147.01 118.83">
  <defs>
    <style>
      .cls-1 {
        fill: #8dc63f;
      }

      .cls-2 {
        fill: #12649b;
      }

      .cls-3 {
        fill: #1c75bc;
      }

      .cls-4 {
        fill: #3a3a3a;
      }
    </style>
  </defs>
  <g id="Layer_1" data-name="Layer 1">
    <g>
      <path class="cls-3" d="M69.9,117.37L1.37,48.36c-1.83-1.84-1.82-4.82,.02-6.65L42.01,1.37c1.84-1.83,4.82-1.82,6.65,.02L117.2,70.39c1.83,1.84,1.82,4.82-.02,6.65l-40.63,40.35c-1.84,1.83-4.82,1.82-6.65-.02Z"/>
      <polygon class="cls-2" points="73.57 26.54 62.96 15.78 29.64 70.17 73.57 26.54"/>
      <rect class="cls-4" x="-6.42" y="65" width="106.66" height="13.33" transform="translate(64.7 -12.12) rotate(45.19)"/>
      <path class="cls-1" d="M76.62,117.47L145.62,48.93c1.84-1.83,1.85-4.81,.02-6.65L105.29,1.65c-1.83-1.84-4.81-1.85-6.65-.02L29.64,70.17c-1.84,1.83-1.85,4.81-.02,6.65l40.35,40.63c1.83,1.84,4.81,1.85,6.65,.02Z"/>
      <rect class="cls-4" x="46.59" y="65.25" width="106.66" height="13.33" transform="translate(221.49 52.53) rotate(135.19)"/>
      <path class="cls-4" d="M54.42,75.14h5.15c2.26,0,4.09,1.83,4.09,4.09v5.15c0,2.26-1.83,4.09-4.09,4.09h-5.15c-2.26,0-4.09-1.83-4.09-4.09v-5.15c0-2.26,1.83-4.09,4.09-4.09Z" transform="translate(74.87 -16.28) rotate(45.19)"/>
      <path class="cls-4" d="M34.45,22.12h5.15c2.26,0,4.09,1.83,4.09,4.09v5.15c0,2.26-1.83,4.09-4.09,4.09h-5.15c-2.26,0-4.09-1.83-4.09-4.09v-5.15c0-2.26,1.83-4.09,4.09-4.09Z" transform="translate(83.57 23.12) rotate(135.2)"/>
    </g>
  </g>
</svg>