<svg width="160" height="160" viewBox="0 0 160 160" fill="none" xmlns="http://www.w3.org/2000/svg">
<rect width="160" height="160" fill="url(#paint0_linear_617_350)"/>
<path fill-rule="evenodd" clip-rule="evenodd" d="M50.5768 75.4857H43.3157C43.3157 74.3082 43.1761 73.5184 42.8974 73.1162C42.465 72.5207 41.2728 72.2228 39.3209 72.2228C37.425 72.2228 36.1686 72.3941 35.5554 72.7373C34.9426 73.0814 34.6354 73.8299 34.6354 74.9823C34.6354 76.0256 34.9074 76.7125 35.452 77.0417C35.8418 77.2753 36.3576 77.4127 37 77.4537L38.4642 77.5559C41.6024 77.7617 43.5624 77.9067 44.3441 77.9894C46.8261 78.2366 48.625 78.8884 49.7416 79.9456C50.6198 80.7698 51.1436 81.8475 51.3111 83.1782C51.4085 83.9743 51.4574 84.8754 51.4574 85.8763C51.4574 88.1829 51.2344 89.8724 50.7886 90.9431C49.9802 92.9076 48.1641 94.1487 45.338 94.6698C44.1541 94.8898 42.3433 95 39.9074 95C35.8407 95 33.0072 94.7609 31.4072 94.2801C29.4433 93.6912 28.1487 92.4984 27.5221 90.7018C27.1731 89.7017 27 88.0362 27 85.7045H34.2607C34.2607 85.9646 34.2618 86.1631 34.2618 86.3C34.2618 87.5446 34.6235 88.3445 35.3461 88.7012C35.8467 88.947 36.4511 89.0759 37.1615 89.0912H39.831C41.1929 89.0912 42.0626 89.0221 42.4373 88.8837C43.105 88.6244 43.543 88.2072 43.7523 87.6294C43.8635 87.2734 43.9184 86.8132 43.9184 86.25C43.9184 84.9884 43.4526 84.2208 42.5217 83.9455C42.1737 83.8367 40.555 83.6851 37.6652 83.4929C35.3443 83.3291 33.7323 83.1716 32.8299 83.019C30.4527 82.58 28.8685 81.6761 28.078 80.3043C27.3828 79.1387 27.0355 77.3751 27.0355 75.016C27.0355 73.2194 27.2231 71.7788 27.5988 70.6952C27.9745 69.6116 28.58 68.7884 29.4156 68.226C30.6395 67.3617 32.2054 66.8545 34.1119 66.703C35.6986 66.5663 37.4584 66.4965 39.3941 66.4965C42.4415 66.4965 44.6132 66.6699 45.9079 67.0127C49.0675 67.8519 50.6468 70.2016 50.6468 74.0625C50.6468 74.3792 50.6236 74.853 50.5768 75.4857Z" fill="#0054A5"/>
<path fill-rule="evenodd" clip-rule="evenodd" d="M90.041 80.7597H94.9066C96.4493 80.7047 97.3876 80.5872 97.7253 80.404C98.1865 80.1534 98.4961 79.6514 98.6502 78.8991C98.7487 78.3982 98.798 77.6532 98.798 76.6641C98.798 75.4519 98.7002 74.5536 98.5035 73.9671C98.2228 73.1453 97.5505 72.6447 96.4855 72.4629C96.2751 72.4355 95.771 72.4209 94.9724 72.4209H90.041V80.7597ZM82.2363 94.805V66.1501H93.6115H95.397H96.7772C98.7716 66.1501 100.294 66.3111 101.339 66.6327C103.731 67.3731 105.335 68.8892 106.158 71.1805C106.582 72.383 106.794 74.1935 106.794 76.6109C106.794 79.5175 106.558 81.6065 106.093 82.8782C105.16 85.393 103.241 86.8416 100.341 87.217C100.001 87.2734 98.5503 87.3238 95.9898 87.3641L94.6944 87.4069H90.041V94.805H82.2363Z" fill="#0054A5"/>
<path fill-rule="evenodd" clip-rule="evenodd" d="M122.056 84.2705L118.399 71.8493L114.851 84.2705H122.056ZM123.606 89.8532H113.171L111.769 94.8053H103.694L112.407 66.1501H124.18L133 94.8053H125.095L123.606 89.8532Z" fill="#0054A5"/>
<path fill-rule="evenodd" clip-rule="evenodd" d="M71.786 69.7764C75.0047 69.7764 77.8776 71.2417 79.7665 73.5368L81.4489 69.9725C78.8173 67.515 75.2366 66 71.2867 66C65.137 66 59.876 69.67 57.7173 74.8651H54.4366L52.4995 78.9687H56.7199C56.6882 79.3493 56.6675 79.7303 56.6675 80.119C56.6675 80.5893 56.6924 81.0541 56.7392 81.5134H54.6185L52.6818 85.6183H57.8179C60.0382 90.682 65.2334 94.2369 71.2867 94.2369C74.3373 94.2369 77.168 93.3338 79.5118 91.791V86.7603C77.6243 88.8837 74.8636 90.2255 71.786 90.2255C68.188 90.2255 65.0234 88.3924 63.1809 85.6183H73.9359L75.873 81.5134H61.5985C61.525 81.0194 61.4856 80.5146 61.4856 80.0004C61.4856 79.6528 61.5035 79.3086 61.5376 78.9687H77.0734L79.0101 74.8651H62.8808C64.6649 71.8233 67.9839 69.7764 71.786 69.7764Z" fill="#FEC10E"/>
<defs>
<linearGradient id="paint0_linear_617_350" x1="-18.5714" y1="-114.286" x2="198.664" y2="165.198" gradientUnits="userSpaceOnUse">
<stop offset="0.166667" stop-color="#FEFEFE"/>
<stop offset="0.634075" stop-color="#F4F4F4"/>
<stop offset="0.9375" stop-color="#DFDFDF"/>
</linearGradient>
</defs>
</svg>
